<svg width="26" height="25" viewBox="0 0 26 25" fill="none" xmlns="http://www.w3.org/2000/svg">
<rect width="24.9239" height="24.9238" rx="3.5" transform="matrix(1 0 -0.00596373 0.999982 0.148621 0)" fill="#FACC15" fill-opacity="0.1"/>
<g clip-path="url(#clip0_130_589)">
<path d="M11.7273 6.16588C11.9992 5.34608 13.1591 5.34608 13.4203 6.16588L14.3553 9.09615C14.4124 9.27461 14.5246 9.43011 14.6758 9.54042C14.827 9.65073 15.0095 9.7102 15.1973 9.71034H18.2789C19.1415 9.71034 19.4927 10.8141 18.7927 11.3215L16.2895 13.132C16.1367 13.2424 16.0224 13.3981 15.9632 13.5769C15.9039 13.7557 15.9026 13.9483 15.9596 14.1271L16.8945 17.0574C17.1567 17.8772 16.2135 18.5599 15.5178 18.0526L13.0362 16.242C12.8848 16.1317 12.7021 16.0722 12.5143 16.0722C12.3264 16.0722 12.143 16.1317 11.9903 16.242L9.48712 18.0526C8.78623 18.5599 7.8521 17.8772 8.12314 17.0574L9.09306 14.1271C9.15214 13.9483 9.15319 13.7557 9.09604 13.5769C9.0389 13.3981 8.92651 13.2424 8.77498 13.132L6.29428 11.3223C5.60033 10.815 5.96564 9.71123 6.82729 9.71123H9.90806C10.0959 9.71128 10.2793 9.65189 10.432 9.54157C10.5848 9.43125 10.6989 9.27565 10.7582 9.09704L11.7282 6.16677L11.7273 6.16588Z" fill="#FACC15" fill-opacity="0.8"/>
</g>
<defs>
<clipPath id="clip0_130_589">
<rect width="17.8027" height="17.8027" fill="white" transform="matrix(1 0 -0.00596373 0.999982 3.68799 3.56055)"/>
</clipPath>
</defs>
</svg>
