<svg width="86" height="87" viewBox="0 0 86 87" fill="none" xmlns="http://www.w3.org/2000/svg">
<path d="M50.1665 68.4398H35.8332C28.2303 68.4398 20.9388 65.4195 15.5628 60.0435C10.1867 54.6675 7.1665 47.376 7.1665 39.7731V21.8564H21.4998V39.7731C21.4998 43.5745 23.01 47.2203 25.698 49.9083C28.386 52.5963 32.0317 54.1064 35.8332 54.1064V21.8564H50.1665V37.9814L50.274 37.9671C54.2014 37.4771 57.8146 35.5694 60.4342 32.6026C63.0539 29.6358 64.4997 25.8143 64.4998 21.8564H78.8332L77.6077 27.9875C76.8737 31.6572 75.3113 35.1107 73.0396 38.0847C70.768 41.0587 67.8471 43.4746 64.4998 45.1481C67.7547 46.2325 70.6582 48.1721 72.9063 50.7637C75.1544 53.3554 76.6643 56.5037 77.278 59.8792L78.8332 68.4398H64.4998C64.4997 64.4819 63.0539 60.6604 60.4342 57.6936C57.8146 54.7269 54.2014 52.8191 50.274 52.3291V68.4541L50.1665 68.4398Z" stroke="url(#paint0_linear_248_13060)" stroke-width="6.16667" stroke-linecap="round" stroke-linejoin="round"/>
<defs>
<linearGradient id="paint0_linear_248_13060" x1="7.1665" y1="21.8564" x2="83.7172" y2="32.1568" gradientUnits="userSpaceOnUse">
<stop offset="0.1" stop-color="#059DFF"/>
<stop offset="0.475" stop-color="#6549D5"/>
<stop offset="0.775" stop-color="#E33FA1"/>
<stop offset="1" stop-color="#FB5343"/>
</linearGradient>
</defs>
</svg>
