<svg width="86" height="87" viewBox="0 0 86 87" fill="none" xmlns="http://www.w3.org/2000/svg">
<path d="M77.7024 11.0058C76.9568 10.374 76.0539 9.95605 75.0897 9.79634C74.1255 9.63663 73.1361 9.74115 72.2266 10.0988L10.2125 34.4543C9.12481 34.8687 8.20347 35.6292 7.59038 36.6186C6.9773 37.608 6.70645 38.7716 6.81956 39.93C6.92047 41.0881 7.39406 42.1822 8.16933 43.0483C8.94459 43.9144 9.97975 44.5059 11.1196 44.734L26.875 47.8582V67.5441C26.8745 68.6091 27.1903 69.6502 27.7824 70.5354C28.3745 71.4206 29.2163 72.11 30.2008 72.516C30.8524 72.7782 31.5477 72.915 32.25 72.9191C32.956 72.9216 33.6553 72.7832 34.3072 72.5121C34.959 72.241 35.5502 71.8426 36.0461 71.3402L44.7805 62.6394L57.9828 74.2629C58.9575 75.1225 60.2106 75.5998 61.5102 75.6066C62.0817 75.6184 62.6506 75.5274 63.1899 75.3379C64.0764 75.0574 64.8743 74.5503 65.5047 73.8669C66.1352 73.1834 66.5763 72.3472 66.7844 71.441L79.4156 16.28C79.6364 15.3282 79.5936 14.3342 79.2917 13.4049C78.9898 12.4756 78.4404 11.6462 77.7024 11.0058ZM28.9242 42.7855L12.1946 39.4597L59.0914 21.0168L28.9242 42.7855ZM32.25 67.5441V51.6207L40.7156 59.0785L32.25 67.5441ZM61.5438 70.2316L33.8625 45.8761L73.7383 17.0863L61.5438 70.2316Z" fill="url(#paint0_linear_248_13058)"/>
<defs>
<linearGradient id="paint0_linear_248_13058" x1="6.79443" y1="9.72363" x2="85.1885" y2="17.2981" gradientUnits="userSpaceOnUse">
<stop offset="0.1" stop-color="#059DFF"/>
<stop offset="0.475" stop-color="#6549D5"/>
<stop offset="0.775" stop-color="#E33FA1"/>
<stop offset="1" stop-color="#FB5343"/>
</linearGradient>
</defs>
</svg>
